<?xml version="1.0" encoding="UTF-8" standalone="no"?>
<!-- Generator: Adobe Illustrator 13.0.2, SVG Export Plug-In . SVG Version: 6.00 Build 14948)  -->

<svg
   xmlns:dc="http://purl.org/dc/elements/1.1/"
   xmlns:cc="http://creativecommons.org/ns#"
   xmlns:rdf="http://www.w3.org/1999/02/22-rdf-syntax-ns#"
   xmlns:svg="http://www.w3.org/2000/svg"
   xmlns="http://www.w3.org/2000/svg"
   xmlns:sodipodi="http://sodipodi.sourceforge.net/DTD/sodipodi-0.dtd"
   xmlns:inkscape="http://www.inkscape.org/namespaces/inkscape"
   version="1.0"
   id="Layer_1"
   x="0px"
   y="0px"
   width="16"
   height="16"
   viewBox="5.5 -3.5 16 16"
   enable-background="new 5.5 -3.5 64 64"
   xml:space="preserve"
   inkscape:version="0.48.4 r9939"
   sodipodi:docname="C:\Users\richardba\Desktop\TheAppXp\cc-icons\fonts\cc-icons-svg\o.cc.svg"><metadata
   id="metadata13"><rdf:RDF><cc:Work
       rdf:about=""><dc:format>image/svg+xml</dc:format><dc:type
         rdf:resource="http://purl.org/dc/dcmitype/StillImage" /><dc:title></dc:title></cc:Work></rdf:RDF></metadata><defs
   id="defs11" /><sodipodi:namedview
   pagecolor="#ffffff"
   bordercolor="#666666"
   borderopacity="1"
   objecttolerance="10"
   gridtolerance="10"
   guidetolerance="10"
   inkscape:pageopacity="0"
   inkscape:pageshadow="2"
   inkscape:window-width="1920"
   inkscape:window-height="1018"
   id="namedview9"
   showgrid="false"
   fit-margin-top="0"
   fit-margin-left="0"
   fit-margin-right="0"
   fit-margin-bottom="0"
   inkscape:zoom="10.429825"
   inkscape:cx="41.177668"
   inkscape:cy="28.066768"
   inkscape:window-x="-5"
   inkscape:window-y="-5"
   inkscape:window-maximized="1"
   inkscape:current-layer="g3" />
<g
   id="g3"
   inkscape:export-filename="C:\Users\richardba\Desktop\g3.png"
   inkscape:export-xdpi="22.500351"
   inkscape:export-ydpi="22.500351"
   transform="translate(0,-47.999)">
	
	<path
   d="m 13.485375,44.499 c 2.237785,0 4.143064,0.781262 5.714339,2.343037 0.752012,0.752262 1.32377,1.612025 1.714277,2.57854 0.390256,0.966765 0.586009,1.992781 0.586009,3.078548 0,1.095267 -0.193253,2.121533 -0.578509,3.078298 -0.385756,0.957015 -0.955015,1.802529 -1.707027,2.53579 -0.780762,0.771262 -1.666526,1.362021 -2.657291,1.771528 -0.990266,0.409506 -2.014281,0.614259 -3.071298,0.614259 -1.057017,0 -2.069033,-0.202003 -3.035798,-0.60726 C 9.483562,59.487234 8.6167985,58.901475 7.8500365,58.134963 7.0832747,57.368451 6.5000156,56.503938 6.1000094,55.541922 5.7000032,54.579908 5.5,53.565892 5.5,52.499125 5.5,51.441859 5.7022532,50.425342 6.1070095,49.449078 6.5117658,48.472812 7.100025,47.599049 7.871287,46.827536 9.395061,45.275512 11.26634,44.499 13.485375,44.499 z m 0.029,1.443022 c -1.828528,0 -3.366803,0.63826 -4.614572,1.91428 -0.6287595,0.63826 -1.1120175,1.354771 -1.4500226,2.150034 -0.3385052,0.795262 -0.5072579,1.626275 -0.5072579,2.493039 0,0.857264 0.1687527,1.683526 0.5072579,2.478289 0.3382556,0.795762 0.8212631,1.505273 1.4500226,2.129033 0.62851,0.624009 1.337771,1.099767 2.128783,1.428773 0.790263,0.328504 1.619026,0.492757 2.485789,0.492757 0.857014,0 1.687527,-0.166252 2.493289,-0.499758 0.804763,-0.333755 1.530274,-0.814262 2.178284,-1.442773 1.247519,-1.219018 1.871029,-2.747542 1.871029,-4.586071 0,-0.885764 -0.162002,-1.723777 -0.485757,-2.514289 -0.323255,-0.790513 -0.795012,-1.495023 -1.413522,-2.114534 -1.28652,-1.28577 -2.833794,-1.92878 -4.643323,-1.92878 z m -0.100252,5.228832 -1.071766,0.557259 c -0.114502,-0.237754 -0.254754,-0.404756 -0.421257,-0.500008 -0.166753,-0.095 -0.321505,-0.142752 -0.464507,-0.142752 -0.714011,0 -1.071517,0.471257 -1.071517,1.414272 0,0.428506 0.0905,0.771012 0.271254,1.028266 0.181003,0.257254 0.447757,0.386006 0.800263,0.386006 0.466757,0 0.795262,-0.228754 0.986015,-0.685761 l 0.985516,0.500008 c -0.209504,0.390756 -0.500008,0.697761 -0.871514,0.921514 -0.371006,0.224004 -0.780762,0.335756 -1.228519,0.335756 -0.714261,0 -1.29077,-0.218754 -1.728777,-0.657261 -0.438007,-0.438007 -0.65701,-1.047516 -0.65701,-1.828278 0,-0.762012 0.221503,-1.366522 0.66426,-1.814279 0.442757,-0.447507 1.002266,-0.67151 1.678776,-0.67151 0.990766,-5e-4 1.700027,0.385256 2.128783,1.156768 z m 4.614323,0 -1.057267,0.557259 c -0.114252,-0.237754 -0.255004,-0.404756 -0.421507,-0.500008 -0.167002,-0.095 -0.326755,-0.142752 -0.478507,-0.142752 -0.714261,0 -1.071766,0.471257 -1.071766,1.414272 0,0.428506 0.09075,0.771012 0.271504,1.028266 0.180752,0.257254 0.447257,0.386006 0.800262,0.386006 0.466257,0 0.795012,-0.228754 0.985265,-0.685761 l 1.000016,0.500008 c -0.218753,0.390756 -0.514258,0.697761 -0.885264,0.921514 -0.371506,0.224004 -0.776262,0.335756 -1.214268,0.335756 -0.724012,0 -1.302271,-0.218754 -1.735277,-0.657261 -0.434007,-0.438007 -0.650511,-1.047516 -0.650511,-1.828278 0,-0.762012 0.221254,-1.366522 0.664511,-1.814279 0.442507,-0.447507 1.002015,-0.67151 1.678276,-0.67151 0.990515,-5e-4 1.695776,0.385256 2.114533,1.156768 z"
   id="path7"
   inkscape:export-xdpi="45.000702"
   inkscape:export-ydpi="45.000702"
   inkscape:export-filename="C:\Users\richardba\Desktop\g4.png"
   inkscape:connector-curvature="0" />
</g>
</svg>